<svg
    fill="#fff"
    xmlns="http://www.w3.org/2000/svg"
    version="1.1"
    viewBox="0 0 413.9 112.6"
>
    <path
        stroke-width="0"
        d="M201.3,67.7c5.4-2.3,8.2-7.5,8.2-13.4v-1.8c0-13.4-11.3-18-27.3-18s-12.5.5-14.8.9c-2.8.4-4,1.6-4,4.8v55.9c0,3.3,1.3,4.3,4.3,4.8,2.8.5,8.2,1,15.3,1,16.5,0,27-5.1,27-19.2v-1.5c0-6.7-3.2-11.2-8.6-13.5h0ZM175.7,44.9c1.9,0,4.3-.2,6.5-.2,11.4,0,15.3,2.3,15.3,8.5v1.2c0,4.5-2.3,8.4-10.6,8.4h-11.3v-18h0ZM197.9,82.5c0,6.2-3.6,9.1-14.9,9.1s-5.1-.2-7.3-.2v-19.5h11.3c8.3,0,10.9,4.5,10.9,9.4v1.2h0Z"
    />
    <path
        stroke-width="0"
        d="M233.3,50.5c-6.1,0-11.3.7-14.8,1.4-1.1.3-1.7.9-1.7,1.9v5.7c0,1.2.7,1.5,1.6,1.5h.4c2.9-.4,8.8-.7,14.4-.7s7.8,1.4,7.8,7.2v3.9h-5.6c-15.4,0-21.6,5.2-21.6,15.3v.3c0,12,8,14.8,15.3,14.8s8.4-1.4,12.5-3.9v1.4c0,1,.8,1.8,1.8,1.8h7.5c1,0,1.8-.8,1.8-1.8v-31.9c0-11.3-6.9-16.9-19.5-16.9h0ZM241.1,90c-2.6,1.4-5.9,2.5-9,2.5s-6.4-1.2-6.4-5.5v-.3c0-5,1.8-7.5,9.8-7.5h5.6v10.9h0Z"
    />
    <path
        stroke-width="0"
        d="M285.5,50.5c-5.9,0-9.2,1-14.4,4.3v-1.9c0-1-.8-1.8-1.8-1.8h-7.7c-1,0-1.8.8-1.8,1.8v46.4c0,1,.8,1.9,1.8,1.9h8.2c1,0,1.8-.9,1.8-1.9v-35.7c3.7-1.9,7-3.2,10-3.2,6.8,0,7.5,2.2,7.5,9.9v28.9c0,1,.8,1.9,1.8,1.9h8.2c1,0,1.8-.9,1.8-1.9v-28.9c0-11.3-2.6-19.9-15.3-19.9h0Z"
    />
    <path
        stroke-width="0"
        d="M318.4,33.6h-8.2c-1,0-1.8.8-1.8,1.8v63.8c0,1,.8,1.9,1.8,1.9h8.2c1,0,1.7-.9,1.7-1.9v-63.8c0-1-.7-1.8-1.7-1.8Z"
    />
    <path
        stroke-width="0"
        d="M347.4,50.5c-13.6,0-21.3,8.7-21.3,22.5v6.6c0,17.5,12.6,22.3,21.5,22.3s11.4-.4,17.2-1.5c1.6-.3,1.9-.9,1.9-2.3v-5.8c0-.9-.7-1.3-1.6-1.3h-.3c-3.7.3-9.8.9-16.3.9s-10.6-6.1-10.6-11.3v-.3h28.9c1.2,0,1.8-.8,1.8-2.2v-5c0-13.2-7.5-22.5-21.1-22.5h0ZM356.7,71.8h-18.8v-.4c0-7,4-10.9,9.5-10.9s9.3,4,9.3,10.9v.4Z"
    />
    <path
        stroke-width="0"
        d="M414.1,99.3l-18-24.5,17.8-21.9c.3-.3.4-.6.4-.9,0-.6-.4-1-1.3-1h-9.9c-.5,0-1.4.3-2,1.1l-15.2,20.2v-37c0-1-.8-1.8-1.8-1.8h-8.2c-1,0-1.8.8-1.8,1.8v63.8c0,1,.8,1.9,1.8,1.9h8.2c1,0,1.8-.9,1.8-1.9v-20.1l13.9,20.2c.5.8,1.6,1.8,2.6,1.8h10.8c.7,0,1.2-.5,1.2-1.1s0-.4-.3-.7h0Z"
    />
    <path
        stroke-width="0"
        d="M132.4,17.5h-26.8c-.7,0-1.3-.4-1.6-1.1v-.2c0,0-5.2-9.7-5.2-9.7-1.8-4-5.7-6.6-10-6.6h-28.8c-4.4,0-8.3,2.6-10,6.6l-5,9.4-.2.4h0c-.3.7-.9,1.1-1.6,1.1h-26.8c-9,0-16.3,7.3-16.3,16.3v62.5c0,9,7.3,16.3,16.3,16.3h87.9l-9.8-9.2H16.3c-3.9,0-7-3.2-7-7v-62.5c0-3.9,3.1-7,7-7h28c3.8-.5,7.2-3,8.8-6.6l5-9.4.2-.4c.3-.6.9-1.1,1.6-1.1h28.8c.7,0,1.3.4,1.6,1.1v.2c0,0,5.2,9.7,5.2,9.7,1.8,4,5.7,6.6,10,6.6h26.7c3.9,0,7,3.2,7,7v62.5c0,3.9-3.1,7-7,7h-15.4l-19.2-18.3c4.6-5.4,7.2-12.3,7.4-19.4.2-8.5-3.1-16.4-9-22.4-6-6-13.9-9.2-22.4-9-8,.2-15.5,3.4-21.2,9-5.7,5.7-8.9,13.2-9,21.2-.2,8.5,3,16.4,9,22.4,5.8,5.8,13.6,9,21.8,9h.6c5.7,0,11.1-1.8,15.9-4.8l22.1,21,.8.5h18.7c9,0,16.2-7.3,16.2-16.3v-62.5c0-9-7.3-16.3-16.3-16.3h0ZM74.3,43.5c5.8,0,11.2,2.2,15.3,6.3,4.2,4.2,6.4,9.8,6.3,15.7-.2,11.5-9.7,21-21.2,21.2h0c-5.9.1-11.5-2.1-15.7-6.3-4.2-4.2-6.4-9.8-6.3-15.7.2-11.5,9.7-21,21.2-21.2h.4Z"
    />
</svg>